Genre:Comedy, Thriller
Language:Korean
IMDb:http://asiandb.com/browse/movie_detail.php?code=7180
Subtitles:English
Encoder: Tony2
...........................................
General
Complete name : Hello.Murder.DVDRip.XviD.FEEL-FREE
Format : AVI
Format/Info : Audio Video Interleave
File size : 476 MiB
Duration : 49mn 33s
Overall bit rate : 1 341 Kbps
...........................................
Video
Format : xvid
Codec ID : xvid
Duration : 49mn 33s
Bit rate : 1 201 Kbps
Width : 720 pixels
Height : 304 pixels
Display aspect ratio : 2.35:1
Frame rate : 23.976 fps
Resolution : 24 bits
Bits/(Pixel*Frame) : 0.229
Stream size : 426 MiB (90%)
.............................................
Audio
ID : 1
Format : MPEG Audio
Format version : Version 1
Format profile : Layer 3
Codec ID : 55
Codec ID/Hint : MP3
Duration : 49mn 33s
Bit rate mode : Constant
Bit rate : 128 Kbps
Channel(s) : 2 channels
Sampling rate : 48.0 KHz
Resolution : 16 bits
Stream size : 45.4 MiB (10%)
Alignment : Aligned on interleaves
Interleave, duration : 24 ms (0.58 video frame)
Interleave, preload duration : 24 ms
Writing library : LAME3.97
............................................
Plot:
Rookie detective Jeong-Min (Kim Dong-Wuk) finds difficulties with his new job. His boss doesn't like him, he has to secretly prepare for a public service exam, and the local residents are up in arms over a serial killer that the police can't catch. A protest is then organized in front of the police station by the local residents. To Jeong-Min's horror, his own mother leads the protest as she works as the general affairs manager for the women's association. The residents are particularly peeved that the serial killer is causing the value of their homes to drop. Jeong-Min then decides that he will catch the serial killer once and for all. 
...................................................